{"title":"Wrath of the Titans 2012 BRRiP x246 Esub 200MB-cRcWoRLd","uid":7368521,"size":237618189,"categoryP":"video","categoryS":"movies","magnet":"?xt=urn:btih:316fd39d6f57964c7fd4286c8490d7f2868c5fe6&amp;dn=Wrath+of+the+Titans+2012+BRRiP+x246+Esub+200MB-cRcWoRLd&amp;tr=udp%3A%2F%2Ftracker.openbittorrent.com%3A80&amp;tr=udp%3A%2F%2Fopen.demonii.com%3A1337&amp;tr=udp%3A%2F%2Ftracker.coppersurfer.tk%3A6969&amp;tr=udp%3A%2F%2Fexodus.desync.com%3A6969","seeders":0,"leechers":0,"uploader":"CRCWORLD","files":12,"time":1340174684,"description":"[url]http://www.imdb.com/title/tt1646987/[/url]\n\nPerseus braves the treacherous underworld to rescue his father, Zeus, captured by his son, Ares, and brother Hades who unleash the ancient Titans upon the world.\n\nRating- 6.0\n\n\nINFO-\n\nGeneral\nComplete name                            : Wrath of the Titans 2012 BRRiP x246 Esub 200MB - cRcWoRLd.mp4\nFormat                                   : MPEG-4\nFormat profile                           : Base Media / Version 2\nCodec ID                                 : mp42\nFile size                                : 224 MiB\nDuration                                 : 1h 39mn\nOverall bit rate mode                    : Variable\nOverall bit rate                         : 314 Kbps\nEncoded date                             : UTC 2012-06-17 19:09:27\n\nVideo\nID                                       : 1\nFormat                                   : AVC\nFormat/Info                              : Advanced Video Codec\nFormat profile                           : &lt;a class=&quot;__cf_email__&quot; href=&quot;/cdn-cgi/l/email-protection&quot; data-cfemail=&quot;185579717658542b3628&quot;&gt;[email&amp;#160;protected]&lt;/a&gt;&lt;script cf-hash='f9e31' type=&quot;text/javascript&quot;&gt;\n/* &lt;![CDATA[ */!function(){try{var t=&quot;currentScript&quot;in document?document.currentScript:function(){for(var t=document.getElementsByTagName(&quot;script&quot;),e=t.length;e--;)if(t[e].getAttribute(&quot;cf-hash&quot;))return t[e]}();if(t&amp;&amp;t.previousSibling){var e,r,n,i,c=t.previousSibling,a=c.getAttribute(&quot;data-cfemail&quot;);if(a){for(e=&quot;&quot;,r=parseInt(a.substr(0,2),16),n=2;a.length-n;n+=2)i=parseInt(a.substr(n,2),16)^r,e+=String.fromCharCode(i);e=document.createTextNode(e),c.parentNode.replaceChild(e,c)}}}catch(u){}}();/* ]]&gt; */&lt;/script&gt;\nFormat settings, CABAC                   : Yes\nFormat settings, ReFrames                : 4 frames\nCodec ID                                 : avc1\nCodec ID/Info                            : Advanced Video Coding\nDuration                                 : 1h 39mn\nBit rate mode                            : Variable\nBit rate                                 : 246 Kbps\nWidth                                    : 656 pixels\nHeight                                   : 368 pixels\nDisplay aspect ratio                     : 16:9\nFrame rate mode                          : Variable\nFrame rate                               : 23.976 fps\nMinimum frame rate                       : 23.974 fps\nMaximum frame rate                       : 90 000.000 fps\nColor space                              : YUV\nChroma subsampling                       : 4:2:0\nBit depth                                : 8 bits\nScan type                                : Progressive\nBits/(Pixel*Frame)                       : 0.043\nStream size                              : 175 MiB (78%)\nWriting library                          : x264 core 112\n\nAudio\nID                                       : 2\nFormat                                   : AAC\nFormat/Info                              : Advanced Audio Codec\nFormat profile                           : LC\nCodec ID                                 : 40\nDuration                                 : 1h 39mn\nBit rate mode                            : Variable\nBit rate                                 : 64.0 Kbps\nMaximum bit rate                         : 109 Kbps\nChannel(s)                               : 2 channels\nChannel positions                        : Front: L R\nSampling rate                            : 22.05 KHz\nCompression mode                         : Lossy\nDelay relative to video                  : -83ms\nStream size                              : 45.6 MiB (20%)\n\nSCREENS- &lt;a href=&quot;\nhttp://www.postimg.com/73000/photo-72662.jpg&quot; rel=&quot;nofollow&quot; target=&quot;_NEW&quot;&gt;\nhttp://www.postimg.com/73000/photo-72662.jpg&lt;/a&gt; &lt;a href=&quot;\nhttp://www.postimg.com/73000/photo-72663.jpg&quot; rel=&quot;nofollow&quot; target=&quot;_NEW&quot;&gt;\nhttp://www.postimg.com/73000/photo-72663.jpg&lt;/a&gt;\n\nTRY THE SAMPLE 1ST.\nAll My 200MB Rips Are Uploaded for Promotional Purposes Only! If You Like It - Buy It!\nBEST For SMARTPHONES/IPAD/IPHONE/ANDROID Devices. For PC Use in VLC &amp; MPC.\nThe Quality of this movies according to the rip size. plz leave your feed-back at my FB page... I am alwayes there.\n\nNEW Rips will Come SOOOOON.\n*********************************","torrent":{"xt":"urn:btih:316fd39d6f57964c7fd4286c8490d7f2868c5fe6","amp;dn":"Wrath+of+the+Titans+2012+BRRiP+x246+Esub+200MB-cRcWoRLd","amp;tr":["udp%3A%2F%2Ftracker.openbittorrent.com%3A80","udp%3A%2F%2Fopen.demonii.com%3A1337","udp%3A%2F%2Ftracker.coppersurfer.tk%3A6969","udp%3A%2F%2Fexodus.desync.com%3A6969"],"infoHash":"316fd39d6f57964c7fd4286c8490d7f2868c5fe6","infoHashBuffer":{"type":"Buffer","data":[49,111,211,157,111,87,150,76,127,212,40,108,132,144,215,242,134,140,95,230]},"announce":[],"urlList":[]}}